<svg width="25" height="25" viewBox="0 0 25 25" fill="none" xmlns="http://www.w3.org/2000/svg">
    <path d="M10.8368 7.18054C10.6687 7.01868 10.4695 6.93152 10.2329 6.93152C9.7535 6.93152 9.36133 7.31751 9.36133 7.79688C9.36133 8.03345 9.46093 8.25757 9.63523 8.42568L13.8686 12.547L9.63523 16.6559C9.46093 16.8302 9.36133 17.0544 9.36133 17.2847C9.36133 17.7641 9.7535 18.15 10.2329 18.15C10.4757 18.15 10.6749 18.0691 10.8368 17.9073L15.6118 13.2381C15.8235 13.0326 15.9293 12.8085 15.9293 12.5408C15.9293 12.2793 15.8297 12.0552 15.6118 11.8435L10.8368 7.18054Z" fill="#9797A5"/>
</svg>
