<svg width="24" height="25" viewBox="0 0 24 25" fill="none" xmlns="http://www.w3.org/2000/svg">
    <path d="M14.4987 5.93468H6.9987V19.268H16.9987V8.43468H14.4987V5.93468ZM6.9987 4.26801H15.332L18.6654 7.60134V19.268C18.6654 19.71 18.4898 20.1339 18.1772 20.4465C17.8646 20.759 17.4407 20.9346 16.9987 20.9346H6.9987C6.55667 20.9346 6.13275 20.759 5.82019 20.4465C5.50763 20.1339 5.33203 19.71 5.33203 19.268V5.93468C5.33203 5.49265 5.50763 5.06872 5.82019 4.75616C6.13275 4.4436 6.55667 4.26801 6.9987 4.26801ZM8.66536 11.768H15.332V13.4346H8.66536V11.768ZM8.66536 15.1013H15.332V16.768H8.66536V15.1013Z" fill="#9797A5"/>
</svg>
