<svg width="28" height="29" viewBox="0 0 28 29" fill="none" xmlns="http://www.w3.org/2000/svg">
    <g clip-path="url(#clip0_1_311)">
        <mask id="mask0_1_311" style="mask-type:luminance" maskUnits="userSpaceOnUse" x="0" y="0" width="28" height="29">
            <path d="M28 0.299988H0V28.3H28V0.299988Z" fill="white"/>
        </mask>
        <g mask="url(#mask0_1_311)">
            <path d="M23.6651 6.45057H11.1712C10.8277 5.43038 9.86272 4.6933 8.72817 4.6933C7.59363 4.6933 6.62866 5.43038 6.28517 6.45057H4.33496C3.88193 6.45057 3.51465 6.81786 3.51465 7.27089C3.51465 7.72392 3.88193 8.0912 4.33496 8.0912H6.28523C6.62872 9.11139 7.59368 9.84847 8.72823 9.84847C9.86277 9.84847 10.8277 9.11139 11.1712 8.0912H23.6652C24.1182 8.0912 24.4855 7.72392 24.4855 7.27089C24.4855 6.81786 24.1182 6.45057 23.6651 6.45057ZM8.72817 8.20785C8.21154 8.20785 7.79121 7.78752 7.79121 7.27089C7.79121 6.75425 8.21154 6.33393 8.72817 6.33393C9.24481 6.33393 9.66513 6.75425 9.66513 7.27089C9.66513 7.78752 9.24481 8.20785 8.72817 8.20785Z" fill="#161620"/>
            <path d="M23.6651 13.4798H21.7149C21.3714 12.4596 20.4064 11.7225 19.2719 11.7225C18.1374 11.7225 17.1724 12.4596 16.8289 13.4798H4.33496C3.88193 13.4798 3.51465 13.847 3.51465 14.3001C3.51465 14.7531 3.88193 15.1204 4.33496 15.1204H16.8289C17.1724 16.1406 18.1374 16.8777 19.2719 16.8777C20.4064 16.8777 21.3714 16.1406 21.7149 15.1204H23.6652C24.1182 15.1204 24.4855 14.7531 24.4855 14.3001C24.4855 13.847 24.1182 13.4798 23.6651 13.4798ZM19.2719 15.237C18.7553 15.237 18.335 14.8167 18.335 14.3001C18.335 13.7834 18.7553 13.3631 19.2719 13.3631C19.7886 13.3631 20.2089 13.7834 20.2089 14.3001C20.2089 14.8167 19.7886 15.237 19.2719 15.237Z" fill="#161620"/>
            <path d="M23.6651 20.5089H14.6858C14.3423 19.4887 13.3773 18.7517 12.2428 18.7517C11.1082 18.7517 10.1433 19.4887 9.79977 20.5089H4.33496C3.88193 20.5089 3.51465 20.8762 3.51465 21.3292C3.51465 21.7823 3.88193 22.1496 4.33496 22.1496H9.79977C10.1433 23.1698 11.1082 23.9068 12.2428 23.9068C13.3773 23.9068 14.3423 23.1698 14.6858 22.1496H23.6652C24.1182 22.1496 24.4855 21.7823 24.4855 21.3292C24.4855 20.8762 24.1182 20.5089 23.6651 20.5089ZM12.2428 22.2663C11.7261 22.2663 11.3058 21.8459 11.3058 21.3293C11.3058 20.8127 11.7261 20.3923 12.2428 20.3923C12.7594 20.3923 13.1797 20.8126 13.1797 21.3292C13.1797 21.8459 12.7594 22.2663 12.2428 22.2663Z" fill="#161620"/>
        </g>
    </g>
    <defs>
        <clipPath id="clip0_1_311">
            <rect width="28" height="28" fill="white" transform="translate(0 0.299988)"/>
        </clipPath>
    </defs>
</svg>
