<svg width="25" height="23" viewBox="0 0 25 23" fill="none" xmlns="http://www.w3.org/2000/svg">
    <g clip-path="url(#clip0_1_858)">
        <mask id="mask0_1_858" style="mask-type:luminance" maskUnits="userSpaceOnUse" x="0" y="0" width="25" height="23">
            <path d="M24.51 0H0.51001V22.9091H24.51V0Z" fill="white"/>
        </mask>
        <g mask="url(#mask0_1_858)">
            <path d="M13.6084 0H15.1628L16.1784 0.0197833L17.0074 0.0395666L17.4426 0.05935C18.7276 0.1187 19.5981 0.316533 20.3442 0.5935C21.1318 0.89025 21.795 1.28592 22.4789 1.91898C23.1421 2.55205 23.5566 3.2049 23.8675 3.95666C24.1369 4.60951 24.3235 5.3415 24.4064 6.35045L24.4685 7.43853L24.4893 8.46726L24.51 10.4258V14.1055L24.4893 15.2529L24.4478 16.2025C24.3856 17.4291 24.1784 18.26 23.8882 18.992C23.5774 19.7438 23.1628 20.3768 22.4996 21.0297C21.8364 21.6627 21.1732 22.0584 20.3649 22.3552C19.681 22.6123 18.9141 22.7904 17.8571 22.8695L16.5722 22.9289L15.4323 22.9487L13.5877 22.9684H9.73281L8.53074 22.9487L7.53592 22.9091C6.25094 22.8497 5.38048 22.6519 4.63436 22.3749C3.8468 22.0782 3.18358 21.6825 2.49965 21.0495C1.83643 20.4164 1.42193 19.7635 1.11105 19.0118C0.841616 18.3589 0.655088 17.6269 0.572186 16.618L0.530735 15.8069L0.51001 15.0155V13.9868V12.1667V8.9025L0.530735 7.93311L0.551461 7.14178L0.572186 6.72633C0.634362 5.51955 0.841616 4.68865 1.13177 3.95666C1.44265 3.2049 1.85716 2.57183 2.52037 1.91898C3.18358 1.28592 3.86752 0.89025 4.65509 0.5935C5.33903 0.336317 6.10586 0.158267 7.16286 0.0791333L8.0126 0.0395666L8.84162 0.0197833L9.83643 0H11.3908C11.4116 0 13.6084 0 13.6084 0ZM15.1214 2.07725H9.87789L8.96597 2.09703L7.63954 2.1366C7.30794 2.15638 6.97633 2.17617 6.64472 2.21573L6.4582 2.23552C6.33384 2.2553 6.18877 2.27508 6.06441 2.31465L5.91934 2.35422C5.87789 2.374 5.83643 2.374 5.79498 2.39378L5.52555 2.47292L5.4012 2.51248C4.84162 2.7301 4.44783 2.9675 4.0126 3.36317C3.59809 3.75883 3.32866 4.1545 3.12141 4.68865L3.05923 4.94583L3.01778 5.06453C2.91416 5.40085 2.81053 5.87565 2.74835 6.5285L2.72763 7.02308L2.68618 8.05181L2.66545 9.81253V13.8879L2.68618 15.154L2.72763 16.0838C2.74835 16.4202 2.76908 16.7565 2.83125 17.0928L2.85198 17.2511C2.85198 17.2708 2.85198 17.3104 2.8727 17.3302L2.91416 17.4687L2.95561 17.6072C2.95561 17.6269 2.97633 17.6467 2.97633 17.6665L3.01778 17.7852L3.05923 17.9039L3.07996 17.9633L3.16286 18.2007C3.37011 18.7348 3.63954 19.1107 4.05405 19.5261C4.46856 19.9218 4.88307 20.179 5.44265 20.3768L5.69136 20.456L5.79498 20.4955L5.85716 20.5153L5.98151 20.5549C6.00224 20.5549 6.02296 20.5747 6.04369 20.5747L6.18877 20.6142L6.33384 20.6538L6.49965 20.6736C6.81053 20.7329 7.18358 20.7725 7.63954 20.7923L9.11105 20.8516L11.0592 20.8714H15.2872L16.3649 20.8516L17.339 20.8121C17.795 20.7923 18.168 20.7527 18.4789 20.6934L18.6447 20.6736L18.7898 20.634L18.9556 20.5747L19.0178 20.5549L19.1421 20.5153L19.2665 20.4757L19.3287 20.456L19.5774 20.3768C20.1369 20.179 20.5307 19.9218 20.966 19.5261C21.3805 19.1305 21.6499 18.7348 21.8571 18.2007L21.94 17.9633C22.0644 17.6072 22.1888 17.1126 22.2509 16.3608L22.3131 15.154L22.3338 13.9275V12.1667V8.98163L22.3131 7.75506L22.2717 6.82525C22.2509 6.54828 22.2302 6.25153 22.1888 5.97456L22.168 5.79651C22.1473 5.71738 22.1473 5.63825 22.1266 5.55911L22.0851 5.42063C22.0644 5.38106 22.0644 5.32171 22.0437 5.28215L22.0022 5.16345L21.9815 5.1041L21.8779 4.78756L21.8571 4.72821C21.6292 4.19406 21.3805 3.81818 20.966 3.40273C20.5514 2.98728 20.1369 2.74988 19.5774 2.55205L19.453 2.51248L19.1836 2.43335L19.1214 2.374L18.9556 2.33443C18.624 2.2553 18.2095 2.17617 17.6499 2.1366L16.7587 2.09703L16.0333 2.07725H15.1214Z" fill="#303044"/>
            <path d="M12.51 5.57886C15.909 5.57886 18.6655 8.21004 18.6655 11.4545C18.6655 14.699 15.909 17.3301 12.51 17.3301C9.11106 17.3301 6.35458 14.699 6.35458 11.4545C6.35458 8.21004 9.11106 5.57886 12.51 5.57886ZM12.51 7.63632C10.2924 7.63632 8.51002 9.33769 8.51002 11.4545C8.51002 13.5713 10.2924 15.2727 12.51 15.2727C14.7276 15.2727 16.51 13.5713 16.51 11.4545C16.51 9.33769 14.7069 7.63632 12.51 7.63632ZM20.3442 5.34146C20.3649 6.09322 19.7432 6.72629 18.9556 6.74607C18.168 6.76585 17.5048 6.17236 17.4841 5.42059C17.4841 5.40081 17.4841 5.36124 17.4841 5.34146C17.5048 4.58969 18.168 3.97641 18.9556 4.01597C19.7225 4.01597 20.3235 4.60947 20.3442 5.34146Z" fill="#303044"/>
        </g>
    </g>
    <defs>
        <clipPath id="clip0_1_858">
            <rect width="24" height="23" fill="white" transform="translate(0.51001)"/>
        </clipPath>
    </defs>
</svg>
