<svg width="20" height="21" viewBox="0 0 20 21" fill="none" xmlns="http://www.w3.org/2000/svg">
    <path d="M16.5453 9.39546C16.5453 14.4864 9.99986 18.85 9.99986 18.85C9.99986 18.85 3.45441 14.4864 3.45441 9.39546C3.45441 7.6595 4.14402 5.99464 5.37153 4.76713C6.59904 3.53962 8.2639 2.85001 9.99986 2.85001C11.7358 2.85001 13.4007 3.53962 14.6282 4.76713C15.8557 5.99464 16.5453 7.6595 16.5453 9.39546Z" stroke="#39E400" stroke-width="1.5" stroke-linecap="round" stroke-linejoin="round"/>
    <path d="M9.99987 11.5772C11.2049 11.5772 12.1817 10.6003 12.1817 9.39534C12.1817 8.19036 11.2049 7.21353 9.99987 7.21353C8.79489 7.21353 7.81805 8.19036 7.81805 9.39534C7.81805 10.6003 8.79489 11.5772 9.99987 11.5772Z" stroke="#39E400" stroke-width="1.5" stroke-linecap="round" stroke-linejoin="round"/>
</svg>
