<svg width="21" height="21" viewBox="0 0 21 21" fill="none" xmlns="http://www.w3.org/2000/svg">
    <path fill-rule="evenodd" clip-rule="evenodd" d="M16.6992 4.70001H15.9492H5.94922H5.19921H3.94922C2.84465 4.70001 1.94922 5.59544 1.94922 6.70001V7.95V8.70001V12.7V13.45V14.7C1.94922 15.8046 2.84465 16.7 3.94922 16.7H5.19921H5.94922H15.9492H16.6992H17.9492C19.0538 16.7 19.9492 15.8046 19.9492 14.7V13.45V12.7V8.70001V7.95V6.70001C19.9492 5.59544 19.0538 4.70001 17.9492 4.70001H16.6992ZM3.94922 6.20001H4.95464C4.83082 6.58518 4.65566 6.93291 4.41889 7.16968C4.18212 7.40645 3.83439 7.58161 3.44922 7.70544V6.70001C3.44922 6.42387 3.67308 6.20001 3.94922 6.20001ZM5.47955 8.23034C4.89218 8.81771 4.09026 9.10951 3.44922 9.26082V12.1392C4.09026 12.2905 4.89218 12.5823 5.47955 13.1697C6.06692 13.757 6.35872 14.559 6.51003 15.2H15.3884C15.5397 14.559 15.8315 13.757 16.4189 13.1697C17.0063 12.5823 17.8082 12.2905 18.4492 12.1392V9.26082C17.8082 9.10951 17.0063 8.81771 16.4189 8.23034C15.8315 7.64297 15.5397 6.84105 15.3884 6.20001H6.51003C6.35872 6.84105 6.06692 7.64297 5.47955 8.23034ZM3.44922 14.7V13.6946C3.83439 13.8184 4.18212 13.9936 4.41889 14.2303C4.65566 14.4671 4.83082 14.8148 4.95464 15.2H3.94922C3.67308 15.2 3.44922 14.9761 3.44922 14.7ZM17.9492 15.2H16.9438C17.0676 14.8148 17.2428 14.4671 17.4795 14.2303C17.7163 13.9936 18.064 13.8184 18.4492 13.6946V14.7C18.4492 14.9761 18.2254 15.2 17.9492 15.2ZM18.4492 6.70001V7.70544C18.064 7.58161 17.7163 7.40645 17.4795 7.16968C17.2428 6.93291 17.0676 6.58518 16.9438 6.20001H17.9492C18.2254 6.20001 18.4492 6.42387 18.4492 6.70001ZM12.4492 10.7C12.4492 11.5284 11.7776 12.2 10.9492 12.2C10.1208 12.2 9.44922 11.5284 9.44922 10.7C9.44922 9.87158 10.1208 9.20001 10.9492 9.20001C11.7776 9.20001 12.4492 9.87158 12.4492 10.7ZM13.9492 10.7C13.9492 12.3569 12.6061 13.7 10.9492 13.7C9.29236 13.7 7.94922 12.3569 7.94922 10.7C7.94922 9.04316 9.29236 7.70001 10.9492 7.70001C12.6061 7.70001 13.9492 9.04316 13.9492 10.7Z" fill="#39E400"/>
</svg>
