<svg width="24" height="25" viewBox="0 0 24 25" fill="none" xmlns="http://www.w3.org/2000/svg">
    <mask id="mask0_14_4270" style="mask-type:luminance" maskUnits="userSpaceOnUse" x="4" y="4" width="16" height="17">
        <path d="M20 4.40002H4V20.4H20V4.40002Z" fill="white"/>
    </mask>
    <g mask="url(#mask0_14_4270)">
        <path d="M4 12.4C4 10.2783 4.84285 8.24346 6.34315 6.74317C7.84344 5.24287 9.87827 4.40002 12 4.40002C14.1217 4.40002 16.1566 5.24287 17.6569 6.74317C19.1571 8.24346 20 10.2783 20 12.4C20 14.5217 19.1571 16.5566 17.6569 18.0569C16.1566 19.5571 14.1217 20.4 12 20.4C9.87827 20.4 7.84344 19.5571 6.34315 18.0569C4.84285 16.5566 4 14.5217 4 12.4ZM12 5.90002C10.2761 5.90002 8.62279 6.58484 7.40381 7.80383C6.18482 9.02281 5.5 10.6761 5.5 12.4C5.5 14.1239 6.18482 15.7772 7.40381 16.9962C8.62279 18.2152 10.2761 18.9 12 18.9C13.7239 18.9 15.3772 18.2152 16.5962 16.9962C17.8152 15.7772 18.5 14.1239 18.5 12.4C18.5 10.6761 17.8152 9.02281 16.5962 7.80383C15.3772 6.58484 13.7239 5.90002 12 5.90002ZM10.92 10.485C10.8312 10.663 10.6762 10.7983 10.4876 10.8613C10.2989 10.9244 10.093 10.9098 9.915 10.821C9.73704 10.7322 9.60166 10.5762 9.53865 10.3876C9.47564 10.199 9.49015 9.99298 9.579 9.81502C9.748 9.47602 10.015 9.11402 10.428 8.83802C10.845 8.56002 11.369 8.40002 12 8.40002C12.5877 8.396 13.1613 8.57996 13.637 8.92502C14.14 9.30202 14.5 9.89002 14.5 10.65C14.5 11.098 14.385 11.48 14.171 11.8C13.966 12.107 13.701 12.313 13.479 12.462C13.37 12.534 13.259 12.6 13.166 12.657L13.16 12.661C13.072 12.7122 12.9853 12.7656 12.9 12.821C12.7929 12.8839 12.6991 12.9671 12.624 13.066C12.5127 13.2291 12.3415 13.3417 12.1476 13.3794C11.9538 13.417 11.7529 13.3767 11.5885 13.2672C11.4242 13.1576 11.3098 12.9877 11.27 12.7943C11.2302 12.6008 11.2683 12.3995 11.376 12.234C11.56 11.97 11.796 11.745 12.068 11.573C12.171 11.506 12.275 11.441 12.381 11.378L12.388 11.374C12.488 11.313 12.57 11.264 12.646 11.213C12.7532 11.1499 12.8473 11.0667 12.923 10.968C12.96 10.914 13 10.827 13 10.65C13.0038 10.5475 12.9818 10.4458 12.936 10.3541C12.8902 10.2623 12.8221 10.1836 12.738 10.125C12.5213 9.9753 12.2634 9.89667 12 9.90002C11.631 9.90002 11.405 9.99002 11.26 10.087C11.1137 10.1875 10.9964 10.3248 10.92 10.485ZM13 15.4C13 15.6652 12.8946 15.9196 12.7071 16.1071C12.5196 16.2946 12.2652 16.4 12 16.4C11.7348 16.4 11.4804 16.2946 11.2929 16.1071C11.1054 15.9196 11 15.6652 11 15.4C11 15.1348 11.1054 14.8804 11.2929 14.6929C11.4804 14.5054 11.7348 14.4 12 14.4C12.2652 14.4 12.5196 14.5054 12.7071 14.6929C12.8946 14.8804 13 15.1348 13 15.4Z" fill="#9797A5"/>
    </g>
</svg>
