<svg width="11" height="11" viewBox="0 0 11 11" fill="none" xmlns="http://www.w3.org/2000/svg">
    <g clip-path="url(#clip0_1_339)">
        <path fill-rule="evenodd" clip-rule="evenodd" d="M2.79016 6.31917L2.27501 9.31917C2.25178 9.45595 2.30837 9.59517 2.42065 9.67684C2.53264 9.75828 2.68264 9.76917 2.80545 9.70467L5.50003 8.28795L8.1946 9.70467C8.24771 9.73262 8.30599 9.74645 8.36427 9.74645C8.43999 9.74645 8.51577 9.7229 8.57938 9.67684C8.69171 9.59517 8.74799 9.45595 8.72466 9.31917L8.20977 6.31901L10.39 4.19437C10.489 4.09737 10.525 3.95184 10.4823 3.8199C10.4395 3.68786 10.3244 3.59076 10.1873 3.57111L7.17494 3.1331L5.82784 0.403481C5.76629 0.278989 5.63881 0.199951 5.50003 0.199951C5.36124 0.199951 5.23357 0.278989 5.17222 0.403481L3.82522 3.1333L0.812658 3.57111C0.67546 3.59076 0.56049 3.68786 0.517806 3.8199C0.474915 3.95184 0.510955 4.09737 0.610333 4.19437L2.79016 6.31917Z" fill="#161620"/>
    </g>
    <defs>
        <clipPath id="clip0_1_339">
            <rect width="10" height="10" fill="white" transform="translate(0.5 0.199951)"/>
        </clipPath>
    </defs>
</svg>
