<svg width="17" height="17" viewBox="0 0 17 17" fill="none" xmlns="http://www.w3.org/2000/svg">
    <g clip-path="url(#clip0_1_33)">
        <path d="M10.6407 11.7563L15.3466 16.4622L16.0122 15.7966L11.3063 11.0907L10.6407 11.7563ZM11.3327 11.7276C12.2393 10.6567 13.0282 8.81207 13.0282 7.27389H12.087C12.087 8.55785 11.3988 10.1928 10.6144 11.1194L11.3327 11.7276ZM13.0282 7.27389C13.0282 3.84786 10.2507 1.07059 6.82441 1.07059V2.01176C9.73098 2.01176 12.087 4.36774 12.087 7.27389H13.0282ZM6.82441 1.07059C3.39817 1.07059 0.620575 3.84786 0.620575 7.27389H1.56175C1.56175 4.36774 3.91788 2.01176 6.82441 2.01176V1.07059ZM0.620575 7.27389C0.620575 10.7 3.39817 13.4772 6.82441 13.4772V12.536C3.91788 12.536 1.56175 10.18 1.56175 7.27389H0.620575ZM6.82441 13.4772C8.36258 13.4772 10.2065 12.6893 11.2775 11.7827L10.6695 11.0644C9.74283 11.8487 8.10861 12.536 6.82441 12.536V13.4772Z" fill="#161620"/>
    </g>
    <defs>
        <clipPath id="clip0_1_33">
            <rect width="16" height="16" fill="white" transform="translate(0.149994 0.599998)"/>
        </clipPath>
    </defs>
</svg>
