<svg width="24" height="25" viewBox="0 0 24 25" fill="none" xmlns="http://www.w3.org/2000/svg">
    <mask id="mask0_14_4258" style="mask-type:luminance" maskUnits="userSpaceOnUse" x="4" y="4" width="16" height="17">
        <path d="M20 4.20001H4V20.2H20V4.20001Z" fill="white"/>
    </mask>
    <g mask="url(#mask0_14_4258)">
        <path d="M7.42746 12.1996V9.19391C7.43638 8.60309 7.5618 8.01984 7.79653 7.47757C8.03125 6.9353 8.37067 6.44468 8.79534 6.03382C9.22 5.62296 9.72157 5.29993 10.2713 5.08324C10.821 4.86655 11.4081 4.76046 11.9989 4.77105C12.5897 4.76046 13.1768 4.86655 13.7265 5.08324C14.2762 5.29993 14.7778 5.62296 15.2024 6.03382C15.6271 6.44468 15.9665 6.9353 16.2012 7.47757C16.436 8.01984 16.5614 8.60309 16.5703 9.19391V12.1996M14.2846 18.1996C14.8908 18.1996 15.4722 17.9588 15.9008 17.5301C16.3295 17.1015 16.5703 16.5201 16.5703 15.9139V13.3425M14.2846 18.1996C14.2846 18.5785 14.1341 18.9418 13.8662 19.2098C13.5983 19.4777 13.2349 19.6282 12.856 19.6282H11.1417C10.7629 19.6282 10.3995 19.4777 10.1316 19.2098C9.86368 18.9418 9.71317 18.5785 9.71317 18.1996C9.71317 17.8207 9.86368 17.4574 10.1316 17.1895C10.3995 16.9215 10.7629 16.771 11.1417 16.771H12.856C13.2349 16.771 13.5983 16.9215 13.8662 17.1895C14.1341 17.4574 14.2846 17.8207 14.2846 18.1996ZM5.71317 10.4853H6.85603C7.00758 10.4853 7.15292 10.5455 7.26009 10.6527C7.36725 10.7599 7.42746 10.9052 7.42746 11.0567V14.4853C7.42746 14.6369 7.36725 14.7822 7.26009 14.8894C7.15292 14.9965 7.00758 15.0567 6.85603 15.0567H5.71317C5.41007 15.0567 5.11937 14.9363 4.90505 14.722C4.69072 14.5077 4.57031 14.217 4.57031 13.9139V11.6282C4.57031 11.3251 4.69072 11.0344 4.90505 10.8201C5.11937 10.6057 5.41007 10.4853 5.71317 10.4853ZM18.2846 15.0567H17.1417C16.9902 15.0567 16.8448 14.9965 16.7377 14.8894C16.6305 14.7822 16.5703 14.6369 16.5703 14.4853V11.0567C16.5703 10.9052 16.6305 10.7599 16.7377 10.6527C16.8448 10.5455 16.9902 10.4853 17.1417 10.4853H18.2846C18.5877 10.4853 18.8784 10.6057 19.0927 10.8201C19.307 11.0344 19.4275 11.3251 19.4275 11.6282V13.9139C19.4275 14.217 19.307 14.5077 19.0927 14.722C18.8784 14.9363 18.5877 15.0567 18.2846 15.0567Z" stroke="#9797A5" stroke-width="1.5" stroke-linecap="round" stroke-linejoin="round"/>
    </g>
</svg>
