<svg width="24" height="25" viewBox="0 0 24 25" fill="none" xmlns="http://www.w3.org/2000/svg">
    <path d="M9.04845 16.3851C9.34198 16.6765 9.51465 17.0681 9.53193 17.4814C9.54921 17.8947 9.40983 18.2994 9.14165 18.6143C9.11947 18.6405 9.10801 18.6741 9.10957 18.7084C9.11113 18.7427 9.12559 18.7752 9.15006 18.7992L10.7071 20.3468C10.7329 20.3723 10.7677 20.3866 10.8039 20.3864C10.8402 20.3863 10.8749 20.3718 10.9005 20.3461L13.3643 17.8642C13.4553 17.7726 13.5236 17.6612 13.5639 17.5386C13.6041 17.4158 13.6723 17.304 13.7632 17.2121C13.8541 17.1202 13.9652 17.0508 14.0876 17.0094C14.2099 16.9681 14.321 16.899 14.412 16.8074L20.7307 10.444C20.7563 10.4182 20.7705 10.3834 20.7704 10.3472C20.7703 10.3109 20.7557 10.2762 20.73 10.2506L19.1729 8.70484C19.1487 8.68055 19.1161 8.66633 19.0818 8.66502C19.0475 8.66371 19.014 8.67541 18.988 8.69778C18.675 8.96854 18.2714 9.1111 17.8578 9.09692C17.4442 9.08275 17.0512 8.91288 16.7576 8.62134C16.4639 8.32979 16.2912 7.93808 16.274 7.52462C16.2568 7.11115 16.3964 6.70646 16.6649 6.39154C16.687 6.36535 16.6985 6.33174 16.6969 6.29745C16.6954 6.26316 16.6809 6.23072 16.6565 6.20665L15.0994 4.66087C15.0736 4.63533 15.0388 4.62106 15.0025 4.62119C14.9663 4.62132 14.9316 4.63585 14.906 4.66157L8.58701 11.0264C8.49613 11.1181 8.42782 11.2297 8.38745 11.3523C8.34728 11.4752 8.27904 11.587 8.18814 11.6788C8.09724 11.7707 7.98619 11.8401 7.86379 11.8816C7.74153 11.9228 7.63056 11.992 7.53968 12.0835L5.07582 14.5654C5.05028 14.5912 5.036 14.626 5.03613 14.6622C5.03627 14.6985 5.05079 14.7332 5.07652 14.7588L6.63361 16.3046C6.65786 16.3288 6.6904 16.3431 6.7247 16.3444C6.759 16.3457 6.79252 16.334 6.81856 16.3116C7.13114 16.0407 7.53447 15.8977 7.94789 15.9114C8.36132 15.925 8.75437 16.0942 9.04845 16.3851Z" stroke="#9797A5" stroke-miterlimit="10"/>
    <path d="M13.1128 16.5647L13.6953 17.143M11.5596 15.0227L11.948 15.408M10.0064 13.4804L10.3945 13.8661M8.25879 11.7459L8.84133 12.3242" stroke="#9797A5" stroke-width="1.5" stroke-miterlimit="10" stroke-linecap="round"/>
</svg>
