<svg width="113" height="113" viewBox="0 0 113 113" fill="none" xmlns="http://www.w3.org/2000/svg">
    <path fill-rule="evenodd" clip-rule="evenodd" d="M51.5657 88.5625C51.0726 86.6341 50.8105 84.6132 50.8105 82.531C50.8105 69.1238 61.6791 58.2552 75.0863 58.2552C77.3815 58.2552 79.6023 58.5737 81.7069 59.1689V17.4276C81.7069 12.5724 77.7344 8.60004 72.8793 8.60004H57.431C57.431 13.4552 53.4586 17.4276 48.6034 17.4276C43.7483 17.4276 39.7758 13.4552 39.7758 8.60004H24.3276C19.4724 8.60004 15.5 12.5724 15.5 17.4276V69.2896C17.2655 69.2896 18.8103 70.8344 18.8103 72.6C18.8103 74.3655 17.2655 75.9103 15.5 75.9103V88.0482C15.5 92.9034 19.4724 96.8758 24.3276 96.8758H39.7758C39.7758 92.0206 43.7483 88.0482 48.6034 88.0482C49.6412 88.0482 50.6387 88.2297 51.5657 88.5625ZM26.5345 69.2896C24.769 69.2896 23.2241 70.8344 23.2241 72.6C23.2241 74.3655 24.769 75.9103 26.5345 75.9103C28.3 75.9103 29.8448 74.3655 29.8448 72.6C29.8448 70.8344 28.3 69.2896 26.5345 69.2896ZM37.569 69.2896C35.8034 69.2896 34.2586 70.8344 34.2586 72.6C34.2586 74.3655 35.8034 75.9103 37.569 75.9103C39.3345 75.9103 40.8793 74.3655 40.8793 72.6C40.8793 70.8344 39.3345 69.2896 37.569 69.2896ZM48.6034 69.2896C46.8379 69.2896 45.2931 70.8344 45.2931 72.6C45.2931 74.3655 46.8379 75.9103 48.6034 75.9103C50.3689 75.9103 51.9138 74.3655 51.9138 72.6C51.9138 70.8344 50.3689 69.2896 48.6034 69.2896Z" fill="#161620"/>
    <path d="M75.0865 104.6C87.2749 104.6 97.1555 94.7196 97.1555 82.5313C97.1555 70.3429 87.2749 60.4623 75.0865 60.4623C62.8982 60.4623 53.0176 70.3429 53.0176 82.5313C53.0176 94.7196 62.8982 104.6 75.0865 104.6Z" fill="#39E400"/>
    <path d="M83.3171 80.9171H76.1829V73.7829C76.1829 73.1323 75.6506 72.6 75 72.6C74.3494 72.6 73.8171 73.1323 73.8171 73.7829V80.9171H66.6829C66.0323 80.9171 65.5 81.4494 65.5 82.1C65.5 82.4253 65.6331 82.721 65.8475 82.9354C66.0619 83.1498 66.3576 83.2829 66.6829 83.2829H73.8171V90.4171C73.8171 90.7424 73.9502 91.0381 74.1646 91.2525C74.379 91.4669 74.6747 91.6 75 91.6C75.6506 91.6 76.1829 91.0677 76.1829 90.4171V83.2829H83.3171C83.9677 83.2829 84.5 82.7506 84.5 82.1C84.5 81.4494 83.9677 80.9171 83.3171 80.9171Z" fill="#161620"/>
</svg>
